<?xml version="1.0" standalone="no"?>
<!DOCTYPE svg PUBLIC "-//W3C//DTD SVG 20010904//EN"
 "http://www.w3.org/TR/2001/REC-SVG-20010904/DTD/svg10.dtd">
<svg version="1.0" xmlns="http://www.w3.org/2000/svg"
 width="700.000000pt" height="700.000000pt" viewBox="0 0 700.000000 700.000000"
 preserveAspectRatio="xMidYMid meet">
<metadata>
Created by potrace 1.14, written by Peter Selinger 2001-2017
</metadata>
<g transform="translate(0.000000,700.000000) scale(0.100000,-0.100000)"
fill="#000000" stroke="none">
<path d="M563 6980 c-232 -61 -402 -222 -481 -455 l-27 -80 -2 -2860 c-1
-1858 2 -2879 8 -2915 18 -97 52 -184 104 -264 8 -12 12 -26 8 -30 -5 -4 -3
-6 2 -4 14 4 96 -87 87 -97 -4 -5 -2 -5 5 -1 6 3 16 -1 21 -10 5 -9 13 -17 18
-17 5 -1 7 -6 6 -12 -2 -5 -1 -7 3 -4 3 4 40 -13 83 -37 42 -24 82 -44 89 -44
7 0 13 -5 13 -11 0 -5 4 -8 8 -5 5 3 32 -1 61 -9 29 -7 85 -15 125 -16 39 -1
77 -7 85 -13 10 -7 13 -7 8 0 -9 15 453 16 472 1 10 -8 13 -9 8 -1 -9 16 1092
16 1112 0 10 -7 13 -7 8 0 -9 15 453 16 472 1 9 -8 12 -8 8 -1 -9 16 1092 16
1112 0 9 -7 12 -7 8 0 -9 15 453 16 472 1 12 -10 13 -9 7 1 -6 11 7 13 65 11
41 -1 80 -7 88 -13 10 -7 13 -7 8 0 -9 15 453 16 472 1 12 -10 13 -9 7 1 -6
11 7 13 65 11 41 -1 80 -7 88 -13 10 -7 13 -7 8 0 -9 15 453 16 472 1 12 -10
13 -9 7 1 -6 11 7 13 65 11 41 -1 80 -7 88 -13 9 -7 12 -7 9 -1 -5 8 67 11
226 13 165 1 250 6 296 16 35 8 68 12 73 9 6 -3 7 -1 3 5 -7 11 -3 14 27 16 6
1 14 3 17 6 3 3 21 15 41 27 28 16 40 18 49 10 8 -9 10 -8 5 5 -7 17 3 23 28
19 5 -1 6 3 2 8 -7 12 29 33 40 23 5 -4 5 -2 2 4 -3 6 12 28 34 50 21 21 51
55 65 76 15 21 31 35 37 31 6 -3 7 -1 3 5 -3 6 7 37 23 69 16 32 37 85 47 118
17 57 18 202 21 2915 2 2370 0 2867 -12 2925 -48 250 -210 437 -454 523 l-76
27 -2885 2 c-2807 2 -2887 1 -2957 -17z"/>
<path d="M6295 89 c-4 -6 -5 -12 -2 -15 2 -3 7 2 10 11 7 17 1 20 -8 4z"/>
<path d="M855 81 c-3 -5 -2 -12 3 -15 5 -3 9 1 9 9 0 17 -3 19 -12 6z"/>
<path d="M1306 82 c-3 -5 1 -9 9 -9 8 0 12 4 9 9 -3 4 -7 8 -9 8 -2 0 -6 -4
-9 -8z"/>
<path d="M1466 82 c-3 -5 1 -9 9 -9 8 0 12 4 9 9 -3 4 -7 8 -9 8 -2 0 -6 -4
-9 -8z"/>
<path d="M1626 82 c-3 -5 1 -9 9 -9 8 0 12 4 9 9 -3 4 -7 8 -9 8 -2 0 -6 -4
-9 -8z"/>
<path d="M1786 82 c-3 -5 1 -9 9 -9 8 0 12 4 9 9 -3 4 -7 8 -9 8 -2 0 -6 -4
-9 -8z"/>
<path d="M1975 81 c-3 -5 -2 -12 3 -15 5 -3 9 1 9 9 0 17 -3 19 -12 6z"/>
<path d="M2455 81 c-3 -5 -2 -12 3 -15 5 -3 9 1 9 9 0 17 -3 19 -12 6z"/>
<path d="M2935 81 c-3 -5 -2 -12 3 -15 5 -3 9 1 9 9 0 17 -3 19 -12 6z"/>
<path d="M3226 82 c-3 -5 1 -9 9 -9 8 0 12 4 9 9 -3 4 -7 8 -9 8 -2 0 -6 -4
-9 -8z"/>
<path d="M3386 82 c-3 -5 1 -9 9 -9 8 0 12 4 9 9 -3 4 -7 8 -9 8 -2 0 -6 -4
-9 -8z"/>
<path d="M3546 82 c-3 -5 1 -9 9 -9 8 0 12 4 9 9 -3 4 -7 8 -9 8 -2 0 -6 -4
-9 -8z"/>
<path d="M3706 82 c-3 -5 1 -9 9 -9 8 0 12 4 9 9 -3 4 -7 8 -9 8 -2 0 -6 -4
-9 -8z"/>
<path d="M4055 81 c-3 -5 -2 -12 3 -15 5 -3 9 1 9 9 0 17 -3 19 -12 6z"/>
<path d="M4695 81 c-3 -5 -2 -12 3 -15 5 -3 9 1 9 9 0 17 -3 19 -12 6z"/>
<path d="M5335 81 c-3 -5 -2 -12 3 -15 5 -3 9 1 9 9 0 17 -3 19 -12 6z"/>
<path d="M5975 81 c-3 -5 -2 -12 3 -15 5 -3 9 1 9 9 0 17 -3 19 -12 6z"/>
</g>
</svg>
